# Blender 4.0.1
# www.blender.org
o Cube
v 1.138921 0.248138 -1.086596
v 1.336895 0.291270 -1.275474
v 0.629122 -1.396873 -0.438584
v 0.738480 -1.639685 -0.514822
v 1.138921 0.922549 0.625432
v 1.336895 1.082912 0.734149
v 0.629122 -0.722461 1.273444
v 0.738480 -0.848043 1.494801
v -0.629122 0.722461 -1.273444
v -0.738480 0.848043 -1.494801
v -1.138921 -0.922549 -0.625432
v -1.336895 -1.082912 -0.734149
v -0.629122 1.396873 0.438584
v -0.738480 1.639685 0.514822
v -1.138921 -0.248138 1.086596
v -1.336895 -0.291270 1.275474
v 1.104830 0.356168 -1.066237
v -0.550723 0.800312 -1.241197
v -0.550723 1.431815 0.361905
v 1.104830 0.987670 0.536865
v 0.589095 -0.625733 1.321284
v 1.066458 0.914615 0.714502
v -0.589095 1.358759 0.539542
v -1.066458 -0.181588 1.146324
v -1.199536 -0.196648 1.003398
v -0.722173 1.343699 0.396616
v -0.722173 0.712196 -1.206485
v -1.199536 -0.828151 -0.599703
v -1.104830 -0.987670 -0.536865
v 0.550723 -1.431815 -0.361905
v 0.550723 -0.800312 1.241197
v -1.104830 -0.356168 1.066237
v 0.722173 -1.343699 -0.396616
v 1.199536 0.196648 -1.003398
v 1.199536 0.828151 0.599703
v 0.722173 -0.712196 1.206485
v -1.066458 -0.914615 -0.714502
v -0.589095 0.625733 -1.321284
v 1.066458 0.181588 -1.146324
v 0.589095 -1.358759 -0.539542
vn -0.1637 -0.2323 0.9588
vn 0.2602 0.9655 -0.0109
vn 0.6117 -0.7361 0.2900
vn 0.5904 0.7509 -0.2958
vn -0.1637 -0.8238 -0.5427
vn 0.2602 0.7135 -0.6505
vn -0.9390 -0.3201 0.1261
vn -0.0701 0.9281 -0.3656
vn -0.7753 -0.0085 -0.6315
vn -0.3303 0.4328 0.8388
vn -0.2236 -0.9379 -0.2654
vn -0.0952 0.0369 0.9948
vn 0.7753 -0.4245 -0.4677
vn 0.3303 0.2556 0.9086
vn 0.2236 0.5049 -0.8337
vn 0.0952 0.6515 0.7527
vn 0.5676 -0.4480 -0.6908
vn -0.9023 0.1161 -0.4152
vn 0.3440 -0.8736 0.3441
vn -0.9975 -0.0652 0.0257
vn 0.5676 0.1435 0.8107
vn -0.9023 0.3680 0.2244
vn 0.7911 0.5691 -0.2242
vn -0.8071 0.5494 -0.2164
vn 0.1637 0.8238 0.5427
vn -0.2602 -0.7135 0.6505
vn -0.6117 0.7361 -0.2900
vn -0.5904 -0.7509 0.2958
vn 0.1637 0.2323 -0.9588
vn -0.2602 -0.9655 0.0109
vn 0.9390 0.3201 -0.1261
vn 0.0701 -0.9281 0.3656
vn -0.5676 0.4480 0.6908
vn 0.9023 -0.1161 0.4152
vn -0.7911 -0.5691 0.2242
vn 0.8071 -0.5494 0.2164
vn -0.5676 -0.1435 -0.8107
vn 0.9023 -0.3680 -0.2244
vn -0.3440 0.8736 -0.3441
vn 0.9975 0.0652 -0.0257
vn 0.7753 0.0085 0.6315
vn 0.3303 -0.4328 -0.8388
vn -0.2236 -0.5049 0.8337
vn -0.0952 -0.6515 -0.7527
vn -0.7753 0.4245 0.4677
vn -0.3303 -0.2556 -0.9086
vn 0.2236 0.9379 0.2654
vn 0.0952 -0.0369 -0.9948
vt 0.625000 0.500000
vt 0.875000 0.500000
vt 0.875000 0.750000
vt 0.625000 0.750000
vt 0.375000 0.750000
vt 0.625000 1.000000
vt 0.375000 1.000000
vt 0.375000 0.000000
vt 0.625000 0.000000
vt 0.625000 0.250000
vt 0.375000 0.250000
vt 0.125000 0.500000
vt 0.375000 0.500000
vt 0.125000 0.750000
s 0
f 17/1/1 18/2/1 9/2/1 1/1/1
f 18/2/2 17/1/2 2/1/2 10/2/2
f 18/2/3 19/3/3 13/3/3 9/2/3
f 19/3/4 18/2/4 10/2/4 14/3/4
f 19/3/5 20/4/5 5/4/5 13/3/5
f 20/4/6 19/3/6 14/3/6 6/4/6
f 20/4/7 17/1/7 1/1/7 5/4/7
f 17/1/8 20/4/8 6/4/8 2/1/8
f 21/5/9 22/4/9 5/4/9 7/5/9
f 22/4/10 21/5/10 8/5/10 6/4/10
f 22/4/11 23/6/11 13/6/11 5/4/11
f 23/6/12 22/4/12 6/4/12 14/6/12
f 23/6/13 24/7/13 15/7/13 13/6/13
f 24/7/14 23/6/14 14/6/14 16/7/14
f 24/7/15 21/5/15 7/5/15 15/7/15
f 21/5/16 24/7/16 16/7/16 8/5/16
f 25/8/17 26/9/17 13/9/17 15/8/17
f 26/9/18 25/8/18 16/8/18 14/9/18
f 26/9/19 27/10/19 9/10/19 13/9/19
f 27/10/20 26/9/20 14/9/20 10/10/20
f 27/10/21 28/11/21 11/11/21 9/10/21
f 28/11/22 27/10/22 10/10/22 12/11/22
f 28/11/23 25/8/23 15/8/23 11/11/23
f 25/8/24 28/11/24 12/11/24 16/8/24
f 29/12/25 30/13/25 3/13/25 11/12/25
f 30/13/26 29/12/26 12/12/26 4/13/26
f 30/13/27 31/5/27 7/5/27 3/13/27
f 31/5/28 30/13/28 4/13/28 8/5/28
f 31/5/29 32/14/29 15/14/29 7/5/29
f 32/14/30 31/5/30 8/5/30 16/14/30
f 32/14/31 29/12/31 11/12/31 15/14/31
f 29/12/32 32/14/32 16/14/32 12/12/32
f 33/13/33 34/1/33 1/1/33 3/13/33
f 34/1/34 33/13/34 4/13/34 2/1/34
f 34/1/35 35/4/35 5/4/35 1/1/35
f 35/4/36 34/1/36 2/1/36 6/4/36
f 35/4/37 36/5/37 7/5/37 5/4/37
f 36/5/38 35/4/38 6/4/38 8/5/38
f 36/5/39 33/13/39 3/13/39 7/5/39
f 33/13/40 36/5/40 8/5/40 4/13/40
f 37/11/41 38/10/41 9/10/41 11/11/41
f 38/10/42 37/11/42 12/11/42 10/10/42
f 38/10/43 39/1/43 1/1/43 9/10/43
f 39/1/44 38/10/44 10/10/44 2/1/44
f 39/1/45 40/13/45 3/13/45 1/1/45
f 40/13/46 39/1/46 2/1/46 4/13/46
f 40/13/47 37/11/47 11/11/47 3/13/47
f 37/11/48 40/13/48 4/13/48 12/11/48
